<?xml version="1.0" encoding="UTF-8"?>
<svg width="60px" height="20px" viewBox="0 0 60 20" version="1.1" xmlns="http://www.w3.org/2000/svg" xmlns:xlink="http://www.w3.org/1999/xlink">
    <!-- Generator: Sketch 49 (51002) - http://www.bohemiancoding.com/sketch -->
    <title>Page 1</title>
    <desc>Created with Sketch.</desc>
    <defs></defs>
    <g id="Page-1" stroke="none" stroke-width="1" fill="none" fill-rule="evenodd">
        <g transform="translate(-0.656250, 0.799999)" fill="#787F86" id="Fill-1">
            <path d="M39.4268921,0.009375 C34.7394541,0.009375 31.4389868,2.50171015 31.4128304,6.06985632 C31.3815785,8.71029807 33.7675894,10.1818526 35.5659297,11.0599617 C37.4125065,11.9581128 38.0324481,12.5349132 38.0253145,13.3382896 C38.0117267,14.5690011 36.5513821,15.1114925 35.1864914,15.1328932 C32.802179,15.1699199 31.4175861,14.4884936 30.3152789,13.9741969 L29.4561927,17.9920979 C30.5635953,18.5006199 32.6092328,18.9442603 34.7309617,18.9660008 C39.7139336,18.9660008 42.9726185,16.5059365 42.9879047,12.692871 C43.0093054,7.85460879 36.2969512,7.58692989 36.3431496,5.42511704 C36.3580962,4.76780907 36.9841523,4.06905844 38.3548177,3.88969999 C39.0335264,3.80103984 40.9076184,3.73242165 43.0310458,4.70972139 L43.864655,0.822602525 C42.7226036,0.407496412 41.254446,0.009375 39.4268921,0.009375 Z M51.877358,0.344653015 C50.9669779,0.344653015 50.1992694,0.873896325 49.8585563,1.68950171 L42.7416265,18.679299 L47.7208617,18.679299 L48.7103904,15.9400063 L54.79499,15.9400063 L55.3680539,18.679299 L59.7552024,18.679299 L55.9258315,0.344653015 L51.877358,0.344653015 Z M52.572372,5.29875086 L54.0096174,12.1829902 L50.0756208,12.1829902 L52.572372,5.29875086 Z M25.3785055,0.344653015 L21.4546997,18.679299 L26.1985269,18.679299 L30.1206343,0.344653015 L25.3785055,0.344653015 Z M18.3611061,0.344653015 L13.4246723,12.8236532 L11.4272714,2.21364961 C11.1939016,1.02879681 10.2682353,0.344653015 9.24032117,0.344653015 L1.16919084,0.344653015 L1.0574315,0.876274183 C2.71377963,1.23668956 4.59636398,1.81722667 5.73671686,2.43682859 C6.43444842,2.81558744 6.63350912,3.14644943 6.86348199,4.04697833 L10.644956,18.679299 L15.6585003,18.679299 L23.3430588,0.344653015 L18.3611061,0.344653015 Z"></path>
        </g>
    </g>
</svg>